<svg version="1.1" id="Layer_1" xmlns="http://www.w3.org/2000/svg" xmlns:xlink="http://www.w3.org/1999/xlink" x="0px" y="0px" viewBox="0 0 500 500" xml:space="preserve" fill="White" class="icon icon-account">
<path d="M385.8,237.6L385.8,237.6c-16.8-17.3-36.9-31.3-58.9-41.2c34.5-38.2,38.1-95.9,6.4-138.5c-16.3-22.2-40.2-36.8-67.4-41
	c-27.1-4.3-54.4,2.4-76.6,18.7l-3.4,2.6c-46,37.1-54.4,103.2-19.1,150.6c2,2.7,4.1,5.3,6.4,7.7C102.8,228.2,57.3,298.7,58.2,376.8
	v59.5c-0.3,26.1,20.6,47.7,46.9,48.1h289.9c26.1-0.4,47.1-22,46.7-47.9v-59.6C442,324.6,422.1,275.1,385.8,237.6z M199.6,73.4
	c12.6-13.5,29.7-21.2,48.2-21.8c0.8,0,1.6,0,2.3,0c17.6,0,34.3,6.6,47.2,18.7c13.5,12.6,21.2,29.7,21.8,48.2c0.1,1.5,0.1,3,0,4.9
	c0.1,26.4-14.2,50.7-37.4,63.4c-2.4,1.3-4.8,2.4-8.4,3.7c-2.1,0.8-4.3,1.4-8,2.4c-2.1,0.5-4.1,0.9-7.7,1.3
	c-5.1,0.6-10.3,0.6-16.9-0.2c-2.1-0.3-4.2-0.7-7.8-1.6c-2.2-0.6-4.3-1.2-7.4-2.4c-2.5-1-5-2.1-7.3-3.3
	c-23.3-12.6-37.6-36.9-37.3-63.4l0-0.4C180.4,104.5,187,86.9,199.6,73.4z M402.8,444.7c-2.1,2.2-5,3.4-7.9,3.5H105.3
	c-3,0-5.9-1.3-8-3.5c-2.1-2.2-3.3-5.1-3.2-8.3v-59.8c-0.9-70.2,43.4-132,110.1-153.6c1-0.3,2.1-0.5,3.2-0.5c1.5,0,3,0.3,4.9,1
	c0.9,0.4,1.9,0.7,3.5,1.2c2.3,0.8,4.7,1.6,7.2,2.4c1.6,0.4,3.2,0.8,4.7,1.1c2.1,0.5,4.2,0.8,7.7,1.4l3.5,0.5
	c2.9,0.3,5.7,0.5,8.7,0.5l2,0.1l2.4-0.1c3,0,5.9-0.2,8.7-0.5c1.4-0.1,2.8-0.3,5.1-0.7c2.1-0.3,4.1-0.7,6.3-1.2
	c1.6-0.4,3.2-0.7,4.8-1.2c2.5-0.7,5-1.5,8.4-2.7l3-1.1c2.4-0.9,5-1.1,7.2-0.4c66.6,21.9,110.9,83.7,110.3,153.8l0,59.7
	C406.1,439.7,404.9,442.6,402.8,444.7z"></path>
</svg>