
<svg version="1.1" id="Layer_1" xmlns="http://www.w3.org/2000/svg" xmlns:xlink="http://www.w3.org/1999/xlink" x="0px" y="0px" viewBox="0 0 500 500" xml:space="preserve" fill="white" class="icon icon-cart">
<path d="M436.2,31.8H63.8c-17.6,0-32,14.3-32,32V351c0,64.6,52.6,117.2,117.2,117.2h202c64.6,0,117.2-52.6,117.2-117.2V63.8
	C468.2,46.1,453.9,31.8,436.2,31.8z M351,430.9H149c-44.1,0-79.9-35.9-79.9-79.9V69.1h70.3c0.1,24.6,4.4,65.5,29.5,94
	c18.2,20.7,43.7,31.2,75.8,31.2c32,0,58.1-10.4,77.4-31c26.9-28.6,33.8-69.8,35.4-94.1h73.5V351C430.9,395.1,395.1,430.9,351,430.9z
	 M324.7,69.1c-1.4,19-6.7,49.8-26,70.3c-13.3,14.1-30.9,21-53.8,21c-22.6,0-39.5-6.7-51.6-20.4c-18.1-20.5-21.2-51.9-21.2-70.9
	H324.7z"></path>
</svg>